<!-- Generated by IcoMoon.io -->
<svg version="1.1" xmlns="http://www.w3.org/2000/svg" width="32" height="32" viewBox="0 0 32 32">
<title>instagram</title>
<path d="M28.37 32.225h-23.981c-2.207 0-3.997-1.789-3.997-3.997 0-0 0-0.001 0-0.001v0-23.98c0-0 0-0.001 0-0.001 0-2.207 1.789-3.997 3.997-3.997h23.981c2.207 0 3.997 1.789 3.997 3.997 0 0 0 0.001 0 0.001v-0 23.98c0 0 0 0.001 0 0.001 0 2.207-1.789 3.997-3.997 3.997v0zM16.379 10.041c-2.477 0.002-4.613 1.457-5.602 3.559l-0.016 0.038h-0.006l-0.027 0.069c-0.042 0.089-0.096 0.221-0.145 0.356l-0.015 0.045c-0.024 0.066-0.050 0.13-0.071 0.195-0.035 0.101-0.076 0.243-0.111 0.387l-0.008 0.037c-0.018 0.066-0.037 0.132-0.052 0.2-0.025 0.114-0.052 0.27-0.073 0.428l-0.003 0.031c-0.009 0.062-0.021 0.124-0.029 0.187-0.023 0.201-0.036 0.433-0.036 0.669 0 3.422 2.774 6.195 6.195 6.195s6.195-2.774 6.195-6.195c0-0.236-0.013-0.468-0.039-0.697l0.003 0.028c-0.008-0.064-0.020-0.125-0.029-0.187-0.024-0.189-0.051-0.346-0.083-0.5l0.007 0.040c-0.015-0.067-0.035-0.134-0.052-0.2-0.043-0.182-0.084-0.324-0.13-0.463l0.011 0.039c-0.021-0.065-0.047-0.129-0.071-0.195-0.064-0.18-0.118-0.312-0.176-0.442l0.017 0.041-0.027-0.069h-0.006c-1.005-2.14-3.141-3.596-5.618-3.597h-0zM28.769 5.444c-0.001-0.882-0.716-1.598-1.599-1.598 0 0 0 0 0 0h-3.197c-0.883 0-1.598 0.715-1.599 1.597v3.199c0 0.883 0.716 1.599 1.599 1.599h3.197c0.883 0 1.599-0.716 1.599-1.599v0-3.199zM28.769 13.638h-2.948c0.223 0.779 0.351 1.674 0.351 2.599 0 5.407-4.384 9.791-9.791 9.791-0.001 0-0.002 0-0.003 0h0c-0.001 0-0.002 0-0.003 0-5.407 0-9.791-4.384-9.791-9.791 0-0.925 0.128-1.82 0.368-2.668l-0.017 0.069h-2.948v13.39c0 0 0 0.001 0 0.001 0 0.883 0.716 1.599 1.599 1.599h21.583c0.883 0 1.599-0.716 1.599-1.599 0-0 0-0.001 0-0.001v0-13.39z"></path>
</svg>
