<!-- Generated by IcoMoon.io -->
<svg version="1.1" xmlns="http://www.w3.org/2000/svg" width="26" height="32" viewBox="0 0 26 32">
<title>pinterest</title>
<path d="M11.991 21.051c-0.261 1.040-0.525 2.131-0.797 3.197-0.269 1.052-0.506 2.118-0.897 3.085-0.648 1.6-1.471 3.146-2.552 4.398-0.718 0.833-0.566 0.501-0.782 0.456-0.165-0.035-0.179-0.196-0.211-0.431-0.176-1.271-0.056-2.742 0.009-4.171 0.075-1.629 0.417-2.983 0.736-4.335 0.605-2.578 1.182-5.105 1.792-7.699 0.040-0.172 0.15-0.457 0.112-0.556-0.277-0.721-0.457-1.368-0.536-2.125-0.026-0.222-0.040-0.478-0.040-0.739 0-0.6 0.078-1.182 0.225-1.735l-0.011 0.047c0.346-1.321 1.14-2.492 2.366-2.92 0.779-0.27 1.642-0.147 2.167 0.165 0.54 0.323 0.911 0.833 1.083 1.556 0.185 0.768 0.049 1.687-0.1 2.362-0.334 1.523-0.772 2.665-1.17 4.134-0.197 0.728-0.421 1.476-0.236 2.263 0.17 0.722 0.546 1.219 1.058 1.593 0.532 0.387 1.162 0.598 2.030 0.568 1.534-0.054 2.599-1.034 3.311-1.958 1.14-1.48 1.83-3.477 2.092-5.853 0.084-0.767 0.146-1.647 0.087-2.516-0.11-1.604-0.611-2.894-1.408-3.893-0.757-0.953-1.831-1.71-3.138-2.137-1.295-0.422-3.088-0.563-4.68-0.291-2.895 0.496-4.936 2.141-6.139 4.413-0.659 1.207-1.046 2.645-1.046 4.172 0 0.031 0 0.061 0 0.091l-0-0.005c0 1.313 0.324 2.329 0.847 3.123 0.166 0.251 0.41 0.458 0.572 0.746 0.231 0.407-0.035 1.013-0.149 1.454-0.137 0.531-0.152 1.264-0.772 1.276-0.257 0.005-0.58-0.182-0.797-0.303-1.63-0.901-2.619-2.539-3.025-4.664-0.118-0.608-0.185-1.307-0.185-2.022s0.067-1.414 0.196-2.092l-0.011 0.069c0.683-3.294 2.695-6.021 5.437-7.645l0.053-0.029c1.394-0.824 2.966-1.403 4.88-1.681 0.575-0.080 1.268-0.14 1.969-0.164l0.035-0.001c0.162-0.008 0.351-0.012 0.542-0.012 1.759 0 3.431 0.377 4.938 1.055l-0.076-0.031c1.461 0.653 2.7 1.558 3.714 2.672l0.008 0.009c1.047 1.143 1.809 2.472 2.291 4.133 0.252 0.864 0.497 1.789 0.497 2.857 0 1.072-0.226 2.015-0.385 2.958-0.592 3.532-2.272 6.421-4.794 8.066-0.63 0.417-1.357 0.761-2.132 0.995l-0.059 0.015c-0.833 0.242-1.784 0.425-2.802 0.353-0.917-0.053-1.763-0.314-2.505-0.736l0.028 0.015c-0.674-0.381-1.242-0.848-1.644-1.554z"></path>
</svg>
