<!-- Generated by IcoMoon.io -->
<svg version="1.1" xmlns="http://www.w3.org/2000/svg" width="38" height="32" viewBox="0 0 38 32">
<title>twitter</title>
<path d="M25.878 1.528c3.005-0.053 4.606 1.042 6.134 2.434 1.297-0.111 2.983-0.835 3.976-1.34l0.965-0.527c-0.567 1.532-1.336 2.732-2.518 3.644-0.263 0.201-0.523 0.474-0.853 0.603v0.019c1.684-0.016 3.073-0.777 4.393-1.189v0.019c-0.693 1.101-1.631 2.219-2.632 3.020l-1.212 0.962c0.022 1.784-0.027 3.486-0.359 4.984-1.939 8.711-7.075 14.624-15.203 17.158-2.92 0.909-7.636 1.283-10.982 0.452-1.658-0.411-3.156-0.876-4.561-1.491-0.863-0.375-1.585-0.754-2.275-1.178l0.078 0.045-0.681-0.414c0.754 0.022 1.637 0.23 2.479 0.093 0.764-0.123 1.512-0.090 2.216-0.244 1.755-0.386 3.314-0.895 4.656-1.682 0.652-0.381 1.64-0.827 2.103-1.377-0.872 0.015-1.662-0.188-2.31-0.415-2.51-0.887-3.972-2.516-4.923-4.965 0.761 0.084 2.952 0.282 3.465-0.151-0.958-0.053-1.878-0.607-2.537-1.020-2.020-1.263-3.666-3.382-3.654-6.643l0.795 0.377c0.508 0.214 1.024 0.328 1.628 0.454 0.256 0.053 0.767 0.202 1.061 0.093h-0.038c-0.39-0.454-1.027-0.757-1.42-1.246-1.296-1.609-2.509-4.087-1.742-7.039 0.195-0.749 0.504-1.41 0.833-2.020l0.038 0.018c0.151 0.316 0.488 0.548 0.7 0.813 0.662 0.82 1.478 1.557 2.31 2.208 2.834 2.216 5.386 3.579 9.485 4.587 1.042 0.276 2.241 0.441 3.476 0.454l0.008 0c-0.349-1.015-0.236-2.66 0.037-3.642 0.692-2.474 2.191-4.254 4.393-5.21 0.488-0.21 1.064-0.392 1.661-0.518l0.062-0.011 0.947-0.112z"></path>
</svg>
